PathFileType	4	(X/Y/Z)	C:\Users\WrightLab\Desktop\Jo\P5V122.trc
DataRate	CameraRate	NumFrames	NumMarkers	Units	OrigDataRate	OrigDataStartFrame	OrigNumFrames
100.00	100.00	       23	19	mm	100.00	1	       569
Frame#	Time	Headset_Front			Headset_Back			Headset_Left			Headset_Right			Left_Shoulder			Right_Shoulder			Sternum			C7			Left Elbow			Right Elbow			Left Wrist			Right Wrist			Left ASIS			Right ASIS			S2			Left Knee			Right Knee			Left Ankle			Right Ankle			
		X1	Y1	Z1	X2	Y2	Z2	X3	Y3	Z3	X4	Y4	Z4	X5	Y5	Z5	X6	Y6	Z6	X7	Y7	Z7	X8	Y8	Z8	X9	Y9	Z9	X10	Y10	Z10	X11	Y11	Z11	X12	Y12	Z12	X13	Y13	Z13	X14	Y14	Z14	X15	Y15	Z15	X16	Y16	Z16	X17	Y17	Z17	X18	Y18	Z18	X19	Y19	Z19	

1	0.000	-286.58926	1602.20386	-1033.24219																-197.86795	1315.54163	-1113.14661							-469.45547	1161.57996	-1212.61731	95.72337	937.51141	-1149.01672	-446.13013	911.26233	-1112.46069	-65.63206	921.62616	-1091.82568	-335.04572	943.12653	-1093.53198				-15.34518	478.43533	-1151.88635	-389.35422	474.46826	-1135.88818							
2	0.010	-286.55557	1602.49524	-1033.79297																-197.61771	1315.93030	-1112.60010							-468.76480	1161.55664	-1212.77417	96.08533	937.21716	-1148.82361	-446.02002	911.29041	-1112.41235	-65.69986	921.41272	-1090.97021	-334.99884	943.12897	-1093.50964				-15.07634	478.64545	-1151.49829	-389.44476	474.56604	-1135.18982							
3	0.020	-286.51294	1602.57324	-1033.76782																-197.61771	1315.93030	-1112.60010							-468.62930	1161.59741	-1213.00159	96.11054	937.78003	-1147.23254	-445.38995	911.42804	-1112.04114	-66.34943	921.40857	-1091.19983	-334.92682	942.90631	-1093.26074				-14.47249	478.73077	-1150.97961	-389.58640	474.37772	-1135.26123							
4	0.030	-286.40558	1602.77234	-1033.75598																-197.53049	1315.99780	-1111.96655							-468.48846	1161.56433	-1212.98010	96.13562	937.50171	-1146.28503	-445.16788	911.56268	-1111.76782	-66.34798	921.84143	-1090.66272	-335.12924	943.35767	-1093.36145				-14.83502	478.70865	-1149.56165	-389.53027	474.49503	-1134.90552							
5	0.040	-286.41907	1602.86572	-1034.06006																-197.40062	1316.19812	-1111.67310							-468.30917	1161.52271	-1212.95752	96.21968	937.48468	-1146.22180	-445.23340	911.96936	-1111.51855	-66.64957	921.56311	-1090.75391	-334.70462	943.24292	-1093.16260				-14.26193	478.56146	-1149.27991	-389.37762	474.82474	-1134.36401							
6	0.050	-286.40167	1602.87732	-1034.05432																-196.77518	1315.67993	-1111.56897							-468.17453	1161.50842	-1212.95923	96.82290	936.29169	-1145.66846	-445.05371	912.11530	-1111.32739	-67.10895	921.41968	-1090.89368	-334.54755	943.27228	-1092.54187				-13.94121	478.71085	-1148.95337	-389.44800	474.71274	-1134.17029							
7	0.060	-286.42279	1602.89160	-1034.05493																-196.01845	1315.38147	-1111.27771							-467.71774	1161.62537	-1213.18884	96.48322	936.03729	-1145.77295	-445.02255	912.13373	-1111.31470	-66.50836	921.91327	-1089.92078	-334.45810	943.06140	-1092.28552				-13.10619	478.55054	-1147.64685	-389.19788	475.03656	-1133.53955							
8	0.070	-286.50940	1602.96472	-1034.59302																-196.01845	1315.38147	-1111.27771							-467.57941	1161.58984	-1213.37439	96.57968	936.87653	-1145.05713	-444.78806	912.25708	-1111.32959	-65.76666	921.87933	-1089.59656	-334.36877	943.40051	-1092.34668				-13.30519	478.80417	-1146.46362	-388.96652	475.28717	-1132.82043							
9	0.080	-286.50827	1602.95154	-1034.59570																-196.01845	1315.38147	-1111.27771							-467.18994	1161.33374	-1213.85388	96.35579	935.74396	-1145.76636	-444.78082	912.29529	-1111.32983	-65.63406	921.89563	-1089.50525	-334.19852	943.51068	-1092.10107				-13.02208	478.89307	-1146.15930	-388.87787	475.37439	-1131.46423							
10	0.090	-286.54358	1602.93164	-1034.60657																-196.01845	1315.38147	-1111.27771							-467.01349	1161.48047	-1214.11377	96.39669	935.89777	-1144.48657	-445.05420	912.18353	-1111.33398	-65.29763	921.78235	-1088.28223	-334.33810	943.54211	-1091.49170				-12.55019	478.89798	-1145.30286	-388.65735	475.33566	-1130.89209							
11	0.100	-286.62952	1602.91296	-1034.62622																-195.90997	1315.53796	-1110.96008							-466.37271	1161.18274	-1213.93921	96.72321	936.01764	-1143.64880	-445.25232	912.70642	-1111.79138	-65.21632	921.76514	-1088.22534	-334.04675	943.78833	-1091.12048				-11.58588	478.53519	-1143.62158	-388.22836	475.38754	-1130.46265							
12	0.110	-286.76712	1602.74512	-1034.67297																-194.95517	1315.55225	-1110.27148							-465.99954	1161.43384	-1213.71863	96.34878	935.28992	-1142.65161	-445.48611	912.53723	-1111.41785	-65.16148	921.71820	-1088.18591	-333.80560	943.78540	-1091.45007				-12.43369	477.66687	-1142.40112	-387.39929	475.93527	-1129.45520							
13	0.120	-286.94342	1602.73474	-1034.97656																-194.89226	1315.61584	-1109.91016							-465.80753	1161.38086	-1213.71045	96.83781	935.33142	-1141.04724	-445.54926	912.53577	-1111.44690	-65.22655	920.74323	-1087.55103	-333.48660	943.67957	-1091.20984				-12.72736	477.66501	-1140.62036	-386.75897	475.70389	-1128.23145							
14	0.130	-287.08572	1602.72229	-1035.00500																-194.14490	1315.21887	-1109.57300							-465.60773	1161.33252	-1213.70544	96.79009	935.01611	-1140.46753	-445.99493	912.20526	-1111.68860	-65.15434	920.66809	-1087.49866	-333.48071	943.65924	-1091.20520				-12.49185	477.56360	-1140.38220	-385.59906	475.34674	-1126.92993							
15	0.140	-287.23795	1602.62402	-1034.74255																-194.07848	1315.29504	-1109.24951							-465.10861	1161.18713	-1213.76624	97.28998	934.63428	-1140.02661	-446.38678	912.48431	-1111.72339	-65.09077	920.63477	-1087.45361	-332.75613	943.10620	-1090.99915				-12.14834	477.46182	-1139.63550	-385.31363	475.64630	-1126.19678							
16	0.150	-287.44739	1602.66553	-1034.47717																-194.13582	1315.07007	-1108.48584							-464.96198	1161.09924	-1213.76611	96.86343	934.57617	-1138.36621	-446.53406	912.47681	-1111.79077	-65.13369	919.81073	-1087.81335	-332.72260	943.06134	-1090.97913				-12.04351	477.25653	-1138.29834	-385.31149	475.72128	-1125.56201							
17	0.160	-287.70679	1602.73657	-1034.50806																-194.20540	1314.90942	-1108.29370							-464.86154	1161.05884	-1214.24146	96.98899	934.53888	-1136.88379	-447.50357	912.50842	-1111.69910	-65.12977	919.13104	-1087.14294	-332.42233	942.82684	-1091.09216				-12.57382	476.62152	-1136.22766	-385.37833	475.59015	-1123.89636							
18	0.170	-288.10214	1602.64136	-1034.50317																-194.09685	1315.06592	-1107.97571							-464.77356	1160.97717	-1214.26599	96.07387	933.66644	-1135.84790	-448.13782	912.48761	-1112.05884	-65.19368	918.71332	-1087.14014	-332.56912	942.86377	-1091.41150				-12.43844	477.31442	-1134.85840	-383.56332	475.72107	-1122.39014							
19	0.180	-288.43893	1602.48792	-1033.97461																-194.03149	1315.05920	-1107.12036							-464.67410	1160.87573	-1214.29700	97.39517	933.96399	-1135.19800	-448.73462	912.39600	-1112.37488	-65.22819	918.74744	-1085.97925	-332.52252	942.57086	-1091.16870				-12.18551	477.60275	-1134.40002	-382.95535	475.85004	-1120.02991							
20	0.190	-288.84650	1602.35486	-1033.45435																-193.90079	1314.09729	-1105.87122							-464.72745	1160.65417	-1214.89990	98.09734	933.93365	-1134.47266	-449.49078	912.09943	-1112.60059	-65.24100	918.21130	-1086.48743	-332.55484	941.96857	-1091.31482				-11.61249	478.07581	-1133.51404	-381.61096	475.67786	-1118.89075							
21	0.200	-289.30325	1602.28137	-1032.94617																-194.76318	1313.96265	-1105.35120							-464.65442	1160.53125	-1214.94165	97.47446	933.65094	-1132.55481	-449.83188	912.12982	-1112.36487	-65.31056	917.46313	-1085.80151	-332.41913	941.29382	-1090.73071				-11.80784	477.49011	-1132.48926	-380.35062	476.03815	-1115.81812							
22	0.210	-289.81305	1602.40063	-1032.76733																-194.87453	1313.76013	-1105.40076							-464.57916	1160.36926	-1214.98413	97.36694	933.17291	-1131.30139	-450.42133	911.98981	-1112.46094	-65.26172	917.24713	-1084.86865	-332.57101	940.73340	-1090.82629				-12.15674	477.98206	-1130.45691	-378.63028	476.06097	-1112.41663							
23	0.220	-290.48871	1602.26196	-1032.44702																-194.93732	1313.01489	-1105.01917							-464.55795	1160.27808	-1215.52319	97.39792	933.04456	-1129.83582	-451.16519	911.63470	-1112.25171	-64.93959	916.89056	-1084.71863	-332.42654	940.43152	-1090.42969				-11.85313	478.36649	-1129.46130	-376.40503	477.52829	-1109.21704							
